<mxfile host="app.diagrams.net" modified="2020-07-30T18:56:31.800Z" agent="5.0 (Macintosh; Intel Mac OS X 10_15_5) AppleWebKit/537.36 (KHTML, like Gecko) Chrome/84.0.4147.89 Safari/537.36" etag="iiPI41nOeJOkYwN-yAGf" version="13.5.5" type="github">
  <diagram id="36sdOlhScXmFpO4X05Oe" name="Page-1">
    <mxGraphModel dx="746" dy="971" grid="1" gridSize="10" guides="1" tooltips="1" connect="1" arrows="1" fold="1" page="1" pageScale="1" pageWidth="827" pageHeight="1169" math="0" shadow="0">
      <root>
        <mxCell id="0" />
        <mxCell id="1" parent="0" />
        <mxCell id="JyXXB15nYnJvHHF5IV0J-5" style="edgeStyle=orthogonalEdgeStyle;rounded=0;orthogonalLoop=1;jettySize=auto;html=1;entryX=0;entryY=0.5;entryDx=0;entryDy=0;" edge="1" parent="1" source="JyXXB15nYnJvHHF5IV0J-1" target="JyXXB15nYnJvHHF5IV0J-4">
          <mxGeometry relative="1" as="geometry" />
        </mxCell>
        <mxCell id="JyXXB15nYnJvHHF5IV0J-1" value="139" style="rounded=0;whiteSpace=wrap;html=1;fillColor=#e1d5e7;strokeColor=#9673a6;" vertex="1" parent="1">
          <mxGeometry x="230" y="200" width="40" height="30" as="geometry" />
        </mxCell>
        <mxCell id="JyXXB15nYnJvHHF5IV0J-7" value="" style="edgeStyle=orthogonalEdgeStyle;rounded=0;orthogonalLoop=1;jettySize=auto;html=1;fillColor=#dae8fc;strokeColor=#6c8ebf;" edge="1" parent="1" source="JyXXB15nYnJvHHF5IV0J-4" target="JyXXB15nYnJvHHF5IV0J-6">
          <mxGeometry relative="1" as="geometry" />
        </mxCell>
        <mxCell id="JyXXB15nYnJvHHF5IV0J-4" value="" style="rounded=1;whiteSpace=wrap;html=1;fillColor=#dae8fc;strokeColor=#6c8ebf;" vertex="1" parent="1">
          <mxGeometry x="300" y="200" width="30" height="30" as="geometry" />
        </mxCell>
        <mxCell id="JyXXB15nYnJvHHF5IV0J-9" value="" style="edgeStyle=orthogonalEdgeStyle;rounded=0;orthogonalLoop=1;jettySize=auto;html=1;fillColor=#dae8fc;strokeColor=#6c8ebf;" edge="1" parent="1" source="JyXXB15nYnJvHHF5IV0J-6" target="JyXXB15nYnJvHHF5IV0J-8">
          <mxGeometry relative="1" as="geometry" />
        </mxCell>
        <mxCell id="JyXXB15nYnJvHHF5IV0J-6" value="" style="rounded=1;whiteSpace=wrap;html=1;fillColor=#dae8fc;strokeColor=#6c8ebf;" vertex="1" parent="1">
          <mxGeometry x="349" y="200" width="30" height="30" as="geometry" />
        </mxCell>
        <mxCell id="JyXXB15nYnJvHHF5IV0J-11" value="" style="edgeStyle=orthogonalEdgeStyle;rounded=0;orthogonalLoop=1;jettySize=auto;html=1;fillColor=#dae8fc;strokeColor=#6c8ebf;" edge="1" parent="1" source="JyXXB15nYnJvHHF5IV0J-8" target="JyXXB15nYnJvHHF5IV0J-10">
          <mxGeometry relative="1" as="geometry" />
        </mxCell>
        <mxCell id="JyXXB15nYnJvHHF5IV0J-8" value="" style="rounded=1;whiteSpace=wrap;html=1;fillColor=#dae8fc;strokeColor=#6c8ebf;" vertex="1" parent="1">
          <mxGeometry x="399" y="200" width="30" height="30" as="geometry" />
        </mxCell>
        <mxCell id="JyXXB15nYnJvHHF5IV0J-10" value="" style="rounded=1;whiteSpace=wrap;html=1;fillColor=#dae8fc;strokeColor=#6c8ebf;" vertex="1" parent="1">
          <mxGeometry x="449" y="200" width="30" height="30" as="geometry" />
        </mxCell>
        <mxCell id="JyXXB15nYnJvHHF5IV0J-12" style="edgeStyle=orthogonalEdgeStyle;rounded=0;orthogonalLoop=1;jettySize=auto;html=1;entryX=0;entryY=0.5;entryDx=0;entryDy=0;" edge="1" parent="1" source="JyXXB15nYnJvHHF5IV0J-13" target="JyXXB15nYnJvHHF5IV0J-15">
          <mxGeometry relative="1" as="geometry" />
        </mxCell>
        <mxCell id="JyXXB15nYnJvHHF5IV0J-13" value="139" style="rounded=0;whiteSpace=wrap;html=1;fillColor=#e1d5e7;strokeColor=#9673a6;" vertex="1" parent="1">
          <mxGeometry x="230" y="250" width="40" height="30" as="geometry" />
        </mxCell>
        <mxCell id="JyXXB15nYnJvHHF5IV0J-14" value="" style="edgeStyle=orthogonalEdgeStyle;rounded=0;orthogonalLoop=1;jettySize=auto;html=1;fillColor=#dae8fc;strokeColor=#6c8ebf;" edge="1" parent="1" source="JyXXB15nYnJvHHF5IV0J-15" target="JyXXB15nYnJvHHF5IV0J-17">
          <mxGeometry relative="1" as="geometry" />
        </mxCell>
        <mxCell id="JyXXB15nYnJvHHF5IV0J-15" value="" style="rounded=1;whiteSpace=wrap;html=1;fillColor=#dae8fc;strokeColor=#6c8ebf;" vertex="1" parent="1">
          <mxGeometry x="300" y="250" width="30" height="30" as="geometry" />
        </mxCell>
        <mxCell id="JyXXB15nYnJvHHF5IV0J-16" value="" style="edgeStyle=orthogonalEdgeStyle;rounded=0;orthogonalLoop=1;jettySize=auto;html=1;fillColor=#dae8fc;strokeColor=#6c8ebf;" edge="1" parent="1" source="JyXXB15nYnJvHHF5IV0J-17" target="JyXXB15nYnJvHHF5IV0J-19">
          <mxGeometry relative="1" as="geometry" />
        </mxCell>
        <mxCell id="JyXXB15nYnJvHHF5IV0J-17" value="" style="rounded=1;whiteSpace=wrap;html=1;fillColor=#dae8fc;strokeColor=#6c8ebf;" vertex="1" parent="1">
          <mxGeometry x="349" y="250" width="30" height="30" as="geometry" />
        </mxCell>
        <mxCell id="JyXXB15nYnJvHHF5IV0J-19" value="" style="rounded=1;whiteSpace=wrap;html=1;fillColor=#dae8fc;strokeColor=#6c8ebf;" vertex="1" parent="1">
          <mxGeometry x="399" y="250" width="30" height="30" as="geometry" />
        </mxCell>
        <mxCell id="JyXXB15nYnJvHHF5IV0J-21" style="edgeStyle=orthogonalEdgeStyle;rounded=0;orthogonalLoop=1;jettySize=auto;html=1;entryX=0;entryY=0.5;entryDx=0;entryDy=0;" edge="1" parent="1" source="JyXXB15nYnJvHHF5IV0J-22" target="JyXXB15nYnJvHHF5IV0J-24">
          <mxGeometry relative="1" as="geometry" />
        </mxCell>
        <mxCell id="JyXXB15nYnJvHHF5IV0J-22" value="..." style="rounded=0;whiteSpace=wrap;html=1;fillColor=#e1d5e7;strokeColor=#9673a6;" vertex="1" parent="1">
          <mxGeometry x="230" y="300" width="40" height="30" as="geometry" />
        </mxCell>
        <mxCell id="JyXXB15nYnJvHHF5IV0J-24" value="" style="rounded=1;whiteSpace=wrap;html=1;fillColor=#dae8fc;strokeColor=#6c8ebf;" vertex="1" parent="1">
          <mxGeometry x="300" y="300" width="30" height="30" as="geometry" />
        </mxCell>
        <mxCell id="JyXXB15nYnJvHHF5IV0J-30" style="edgeStyle=orthogonalEdgeStyle;rounded=0;orthogonalLoop=1;jettySize=auto;html=1;entryX=0;entryY=0.5;entryDx=0;entryDy=0;" edge="1" parent="1" source="JyXXB15nYnJvHHF5IV0J-31" target="JyXXB15nYnJvHHF5IV0J-33">
          <mxGeometry relative="1" as="geometry" />
        </mxCell>
        <mxCell id="JyXXB15nYnJvHHF5IV0J-31" value="..." style="rounded=0;whiteSpace=wrap;html=1;fillColor=#e1d5e7;strokeColor=#9673a6;" vertex="1" parent="1">
          <mxGeometry x="230" y="350" width="40" height="30" as="geometry" />
        </mxCell>
        <mxCell id="JyXXB15nYnJvHHF5IV0J-32" value="" style="edgeStyle=orthogonalEdgeStyle;rounded=0;orthogonalLoop=1;jettySize=auto;html=1;fillColor=#dae8fc;strokeColor=#6c8ebf;" edge="1" parent="1" source="JyXXB15nYnJvHHF5IV0J-33" target="JyXXB15nYnJvHHF5IV0J-35">
          <mxGeometry relative="1" as="geometry" />
        </mxCell>
        <mxCell id="JyXXB15nYnJvHHF5IV0J-33" value="" style="rounded=1;whiteSpace=wrap;html=1;fillColor=#dae8fc;strokeColor=#6c8ebf;" vertex="1" parent="1">
          <mxGeometry x="300" y="350" width="30" height="30" as="geometry" />
        </mxCell>
        <mxCell id="JyXXB15nYnJvHHF5IV0J-34" value="" style="edgeStyle=orthogonalEdgeStyle;rounded=0;orthogonalLoop=1;jettySize=auto;html=1;fillColor=#dae8fc;strokeColor=#6c8ebf;" edge="1" parent="1" source="JyXXB15nYnJvHHF5IV0J-35" target="JyXXB15nYnJvHHF5IV0J-37">
          <mxGeometry relative="1" as="geometry" />
        </mxCell>
        <mxCell id="JyXXB15nYnJvHHF5IV0J-35" value="" style="rounded=1;whiteSpace=wrap;html=1;fillColor=#dae8fc;strokeColor=#6c8ebf;" vertex="1" parent="1">
          <mxGeometry x="349" y="350" width="30" height="30" as="geometry" />
        </mxCell>
        <mxCell id="JyXXB15nYnJvHHF5IV0J-37" value="" style="rounded=1;whiteSpace=wrap;html=1;fillColor=#dae8fc;strokeColor=#6c8ebf;" vertex="1" parent="1">
          <mxGeometry x="399" y="350" width="30" height="30" as="geometry" />
        </mxCell>
        <mxCell id="JyXXB15nYnJvHHF5IV0J-39" style="edgeStyle=orthogonalEdgeStyle;rounded=0;orthogonalLoop=1;jettySize=auto;html=1;entryX=0;entryY=0.5;entryDx=0;entryDy=0;" edge="1" parent="1" source="JyXXB15nYnJvHHF5IV0J-40" target="JyXXB15nYnJvHHF5IV0J-42">
          <mxGeometry relative="1" as="geometry" />
        </mxCell>
        <mxCell id="JyXXB15nYnJvHHF5IV0J-40" value="102" style="rounded=0;whiteSpace=wrap;html=1;fillColor=#e1d5e7;strokeColor=#9673a6;" vertex="1" parent="1">
          <mxGeometry x="230" y="400" width="40" height="30" as="geometry" />
        </mxCell>
        <mxCell id="JyXXB15nYnJvHHF5IV0J-41" value="" style="edgeStyle=orthogonalEdgeStyle;rounded=0;orthogonalLoop=1;jettySize=auto;html=1;fillColor=#dae8fc;strokeColor=#6c8ebf;" edge="1" parent="1" source="JyXXB15nYnJvHHF5IV0J-42" target="JyXXB15nYnJvHHF5IV0J-44">
          <mxGeometry relative="1" as="geometry" />
        </mxCell>
        <mxCell id="JyXXB15nYnJvHHF5IV0J-42" value="" style="rounded=1;whiteSpace=wrap;html=1;fillColor=#dae8fc;strokeColor=#6c8ebf;" vertex="1" parent="1">
          <mxGeometry x="300" y="400" width="30" height="30" as="geometry" />
        </mxCell>
        <mxCell id="JyXXB15nYnJvHHF5IV0J-43" value="" style="edgeStyle=orthogonalEdgeStyle;rounded=0;orthogonalLoop=1;jettySize=auto;html=1;fillColor=#dae8fc;strokeColor=#6c8ebf;" edge="1" parent="1" source="JyXXB15nYnJvHHF5IV0J-44" target="JyXXB15nYnJvHHF5IV0J-46">
          <mxGeometry relative="1" as="geometry" />
        </mxCell>
        <mxCell id="JyXXB15nYnJvHHF5IV0J-44" value="" style="rounded=1;whiteSpace=wrap;html=1;fillColor=#dae8fc;strokeColor=#6c8ebf;" vertex="1" parent="1">
          <mxGeometry x="349" y="400" width="30" height="30" as="geometry" />
        </mxCell>
        <mxCell id="JyXXB15nYnJvHHF5IV0J-45" value="" style="edgeStyle=orthogonalEdgeStyle;rounded=0;orthogonalLoop=1;jettySize=auto;html=1;fillColor=#dae8fc;strokeColor=#6c8ebf;" edge="1" parent="1" source="JyXXB15nYnJvHHF5IV0J-46" target="JyXXB15nYnJvHHF5IV0J-47">
          <mxGeometry relative="1" as="geometry" />
        </mxCell>
        <mxCell id="JyXXB15nYnJvHHF5IV0J-46" value="" style="rounded=1;whiteSpace=wrap;html=1;fillColor=#dae8fc;strokeColor=#6c8ebf;" vertex="1" parent="1">
          <mxGeometry x="399" y="400" width="30" height="30" as="geometry" />
        </mxCell>
        <mxCell id="JyXXB15nYnJvHHF5IV0J-47" value="" style="rounded=1;whiteSpace=wrap;html=1;fillColor=#dae8fc;strokeColor=#6c8ebf;" vertex="1" parent="1">
          <mxGeometry x="449" y="400" width="30" height="30" as="geometry" />
        </mxCell>
        <mxCell id="JyXXB15nYnJvHHF5IV0J-48" style="edgeStyle=orthogonalEdgeStyle;rounded=0;orthogonalLoop=1;jettySize=auto;html=1;entryX=0;entryY=0.5;entryDx=0;entryDy=0;" edge="1" parent="1" source="JyXXB15nYnJvHHF5IV0J-49" target="JyXXB15nYnJvHHF5IV0J-51">
          <mxGeometry relative="1" as="geometry" />
        </mxCell>
        <mxCell id="JyXXB15nYnJvHHF5IV0J-49" value="101" style="rounded=0;whiteSpace=wrap;html=1;fillColor=#e1d5e7;strokeColor=#9673a6;" vertex="1" parent="1">
          <mxGeometry x="230" y="450" width="40" height="30" as="geometry" />
        </mxCell>
        <mxCell id="JyXXB15nYnJvHHF5IV0J-50" value="" style="edgeStyle=orthogonalEdgeStyle;rounded=0;orthogonalLoop=1;jettySize=auto;html=1;fillColor=#dae8fc;strokeColor=#6c8ebf;" edge="1" parent="1" source="JyXXB15nYnJvHHF5IV0J-51" target="JyXXB15nYnJvHHF5IV0J-53">
          <mxGeometry relative="1" as="geometry" />
        </mxCell>
        <mxCell id="JyXXB15nYnJvHHF5IV0J-51" value="" style="rounded=1;whiteSpace=wrap;html=1;fillColor=#dae8fc;strokeColor=#6c8ebf;" vertex="1" parent="1">
          <mxGeometry x="300" y="450" width="30" height="30" as="geometry" />
        </mxCell>
        <mxCell id="JyXXB15nYnJvHHF5IV0J-52" value="" style="edgeStyle=orthogonalEdgeStyle;rounded=0;orthogonalLoop=1;jettySize=auto;html=1;fillColor=#dae8fc;strokeColor=#6c8ebf;" edge="1" parent="1" source="JyXXB15nYnJvHHF5IV0J-53" target="JyXXB15nYnJvHHF5IV0J-55">
          <mxGeometry relative="1" as="geometry" />
        </mxCell>
        <mxCell id="JyXXB15nYnJvHHF5IV0J-53" value="" style="rounded=1;whiteSpace=wrap;html=1;fillColor=#dae8fc;strokeColor=#6c8ebf;" vertex="1" parent="1">
          <mxGeometry x="349" y="450" width="30" height="30" as="geometry" />
        </mxCell>
        <mxCell id="JyXXB15nYnJvHHF5IV0J-54" value="" style="edgeStyle=orthogonalEdgeStyle;rounded=0;orthogonalLoop=1;jettySize=auto;html=1;fillColor=#dae8fc;strokeColor=#6c8ebf;" edge="1" parent="1" source="JyXXB15nYnJvHHF5IV0J-55" target="JyXXB15nYnJvHHF5IV0J-56">
          <mxGeometry relative="1" as="geometry" />
        </mxCell>
        <mxCell id="JyXXB15nYnJvHHF5IV0J-55" value="" style="rounded=1;whiteSpace=wrap;html=1;fillColor=#dae8fc;strokeColor=#6c8ebf;" vertex="1" parent="1">
          <mxGeometry x="399" y="450" width="30" height="30" as="geometry" />
        </mxCell>
        <mxCell id="JyXXB15nYnJvHHF5IV0J-56" value="" style="rounded=1;whiteSpace=wrap;html=1;fillColor=#dae8fc;strokeColor=#6c8ebf;" vertex="1" parent="1">
          <mxGeometry x="449" y="450" width="30" height="30" as="geometry" />
        </mxCell>
        <mxCell id="JyXXB15nYnJvHHF5IV0J-57" style="edgeStyle=orthogonalEdgeStyle;rounded=0;orthogonalLoop=1;jettySize=auto;html=1;entryX=0;entryY=0.5;entryDx=0;entryDy=0;" edge="1" parent="1" source="JyXXB15nYnJvHHF5IV0J-58" target="JyXXB15nYnJvHHF5IV0J-60">
          <mxGeometry relative="1" as="geometry" />
        </mxCell>
        <mxCell id="JyXXB15nYnJvHHF5IV0J-58" value="100" style="rounded=0;whiteSpace=wrap;html=1;fillColor=#e1d5e7;strokeColor=#9673a6;" vertex="1" parent="1">
          <mxGeometry x="230" y="500" width="40" height="30" as="geometry" />
        </mxCell>
        <mxCell id="JyXXB15nYnJvHHF5IV0J-59" value="" style="edgeStyle=orthogonalEdgeStyle;rounded=0;orthogonalLoop=1;jettySize=auto;html=1;fillColor=#dae8fc;strokeColor=#6c8ebf;" edge="1" parent="1" source="JyXXB15nYnJvHHF5IV0J-60" target="JyXXB15nYnJvHHF5IV0J-62">
          <mxGeometry relative="1" as="geometry" />
        </mxCell>
        <mxCell id="JyXXB15nYnJvHHF5IV0J-60" value="" style="rounded=1;whiteSpace=wrap;html=1;fillColor=#dae8fc;strokeColor=#6c8ebf;" vertex="1" parent="1">
          <mxGeometry x="300" y="500" width="30" height="30" as="geometry" />
        </mxCell>
        <mxCell id="JyXXB15nYnJvHHF5IV0J-61" value="" style="edgeStyle=orthogonalEdgeStyle;rounded=0;orthogonalLoop=1;jettySize=auto;html=1;fillColor=#dae8fc;strokeColor=#6c8ebf;" edge="1" parent="1" source="JyXXB15nYnJvHHF5IV0J-62" target="JyXXB15nYnJvHHF5IV0J-64">
          <mxGeometry relative="1" as="geometry" />
        </mxCell>
        <mxCell id="JyXXB15nYnJvHHF5IV0J-62" value="" style="rounded=1;whiteSpace=wrap;html=1;fillColor=#dae8fc;strokeColor=#6c8ebf;" vertex="1" parent="1">
          <mxGeometry x="349" y="500" width="30" height="30" as="geometry" />
        </mxCell>
        <mxCell id="JyXXB15nYnJvHHF5IV0J-63" value="" style="edgeStyle=orthogonalEdgeStyle;rounded=0;orthogonalLoop=1;jettySize=auto;html=1;fillColor=#dae8fc;strokeColor=#6c8ebf;" edge="1" parent="1" source="JyXXB15nYnJvHHF5IV0J-64" target="JyXXB15nYnJvHHF5IV0J-65">
          <mxGeometry relative="1" as="geometry" />
        </mxCell>
        <mxCell id="JyXXB15nYnJvHHF5IV0J-64" value="" style="rounded=1;whiteSpace=wrap;html=1;fillColor=#dae8fc;strokeColor=#6c8ebf;" vertex="1" parent="1">
          <mxGeometry x="399" y="500" width="30" height="30" as="geometry" />
        </mxCell>
        <mxCell id="JyXXB15nYnJvHHF5IV0J-65" value="" style="rounded=1;whiteSpace=wrap;html=1;fillColor=#dae8fc;strokeColor=#6c8ebf;" vertex="1" parent="1">
          <mxGeometry x="449" y="500" width="30" height="30" as="geometry" />
        </mxCell>
        <mxCell id="JyXXB15nYnJvHHF5IV0J-66" value="Active Run queues" style="text;html=1;align=center;verticalAlign=middle;resizable=0;points=[];autosize=1;" vertex="1" parent="1">
          <mxGeometry x="290" y="160" width="120" height="20" as="geometry" />
        </mxCell>
        <mxCell id="JyXXB15nYnJvHHF5IV0J-69" style="edgeStyle=orthogonalEdgeStyle;rounded=0;orthogonalLoop=1;jettySize=auto;html=1;entryX=0.5;entryY=-0.1;entryDx=0;entryDy=0;entryPerimeter=0;strokeWidth=2;" edge="1" parent="1" source="JyXXB15nYnJvHHF5IV0J-67" target="JyXXB15nYnJvHHF5IV0J-68">
          <mxGeometry relative="1" as="geometry" />
        </mxCell>
        <mxCell id="JyXXB15nYnJvHHF5IV0J-67" value="Low" style="text;html=1;align=center;verticalAlign=middle;resizable=0;points=[];autosize=1;" vertex="1" parent="1">
          <mxGeometry x="180" y="205" width="40" height="20" as="geometry" />
        </mxCell>
        <mxCell id="JyXXB15nYnJvHHF5IV0J-68" value="high" style="text;html=1;align=center;verticalAlign=middle;resizable=0;points=[];autosize=1;" vertex="1" parent="1">
          <mxGeometry x="180" y="500" width="40" height="20" as="geometry" />
        </mxCell>
        <mxCell id="JyXXB15nYnJvHHF5IV0J-70" value="&lt;font style=&quot;font-size: 17px&quot;&gt;priority&lt;/font&gt;" style="text;html=1;align=center;verticalAlign=middle;resizable=0;points=[];autosize=1;rotation=270;" vertex="1" parent="1">
          <mxGeometry x="150" y="355" width="70" height="20" as="geometry" />
        </mxCell>
        <mxCell id="JyXXB15nYnJvHHF5IV0J-71" style="edgeStyle=orthogonalEdgeStyle;rounded=0;orthogonalLoop=1;jettySize=auto;html=1;entryX=0;entryY=0.5;entryDx=0;entryDy=0;" edge="1" parent="1" source="JyXXB15nYnJvHHF5IV0J-72" target="JyXXB15nYnJvHHF5IV0J-74">
          <mxGeometry relative="1" as="geometry" />
        </mxCell>
        <mxCell id="JyXXB15nYnJvHHF5IV0J-72" value="139" style="rounded=0;whiteSpace=wrap;html=1;fillColor=#f8cecc;strokeColor=#b85450;" vertex="1" parent="1">
          <mxGeometry x="660" y="200" width="40" height="30" as="geometry" />
        </mxCell>
        <mxCell id="JyXXB15nYnJvHHF5IV0J-73" value="" style="edgeStyle=orthogonalEdgeStyle;rounded=0;orthogonalLoop=1;jettySize=auto;html=1;fillColor=#dae8fc;strokeColor=#6c8ebf;" edge="1" parent="1" source="JyXXB15nYnJvHHF5IV0J-74" target="JyXXB15nYnJvHHF5IV0J-76">
          <mxGeometry relative="1" as="geometry" />
        </mxCell>
        <mxCell id="JyXXB15nYnJvHHF5IV0J-74" value="" style="rounded=1;whiteSpace=wrap;html=1;fillColor=#dae8fc;strokeColor=#6c8ebf;" vertex="1" parent="1">
          <mxGeometry x="730" y="200" width="30" height="30" as="geometry" />
        </mxCell>
        <mxCell id="JyXXB15nYnJvHHF5IV0J-75" value="" style="edgeStyle=orthogonalEdgeStyle;rounded=0;orthogonalLoop=1;jettySize=auto;html=1;fillColor=#dae8fc;strokeColor=#6c8ebf;" edge="1" parent="1" source="JyXXB15nYnJvHHF5IV0J-76" target="JyXXB15nYnJvHHF5IV0J-78">
          <mxGeometry relative="1" as="geometry" />
        </mxCell>
        <mxCell id="JyXXB15nYnJvHHF5IV0J-76" value="" style="rounded=1;whiteSpace=wrap;html=1;fillColor=#dae8fc;strokeColor=#6c8ebf;" vertex="1" parent="1">
          <mxGeometry x="779" y="200" width="30" height="30" as="geometry" />
        </mxCell>
        <mxCell id="JyXXB15nYnJvHHF5IV0J-77" value="" style="edgeStyle=orthogonalEdgeStyle;rounded=0;orthogonalLoop=1;jettySize=auto;html=1;fillColor=#dae8fc;strokeColor=#6c8ebf;" edge="1" parent="1" source="JyXXB15nYnJvHHF5IV0J-78" target="JyXXB15nYnJvHHF5IV0J-79">
          <mxGeometry relative="1" as="geometry" />
        </mxCell>
        <mxCell id="JyXXB15nYnJvHHF5IV0J-78" value="" style="rounded=1;whiteSpace=wrap;html=1;fillColor=#dae8fc;strokeColor=#6c8ebf;" vertex="1" parent="1">
          <mxGeometry x="829" y="200" width="30" height="30" as="geometry" />
        </mxCell>
        <mxCell id="JyXXB15nYnJvHHF5IV0J-79" value="" style="rounded=1;whiteSpace=wrap;html=1;fillColor=#dae8fc;strokeColor=#6c8ebf;" vertex="1" parent="1">
          <mxGeometry x="879" y="200" width="30" height="30" as="geometry" />
        </mxCell>
        <mxCell id="JyXXB15nYnJvHHF5IV0J-80" style="edgeStyle=orthogonalEdgeStyle;rounded=0;orthogonalLoop=1;jettySize=auto;html=1;entryX=0;entryY=0.5;entryDx=0;entryDy=0;" edge="1" parent="1" source="JyXXB15nYnJvHHF5IV0J-81" target="JyXXB15nYnJvHHF5IV0J-83">
          <mxGeometry relative="1" as="geometry" />
        </mxCell>
        <mxCell id="JyXXB15nYnJvHHF5IV0J-81" value="139" style="rounded=0;whiteSpace=wrap;html=1;fillColor=#f8cecc;strokeColor=#b85450;" vertex="1" parent="1">
          <mxGeometry x="660" y="250" width="40" height="30" as="geometry" />
        </mxCell>
        <mxCell id="JyXXB15nYnJvHHF5IV0J-82" value="" style="edgeStyle=orthogonalEdgeStyle;rounded=0;orthogonalLoop=1;jettySize=auto;html=1;fillColor=#dae8fc;strokeColor=#6c8ebf;" edge="1" parent="1" source="JyXXB15nYnJvHHF5IV0J-83" target="JyXXB15nYnJvHHF5IV0J-85">
          <mxGeometry relative="1" as="geometry" />
        </mxCell>
        <mxCell id="JyXXB15nYnJvHHF5IV0J-83" value="" style="rounded=1;whiteSpace=wrap;html=1;fillColor=#dae8fc;strokeColor=#6c8ebf;" vertex="1" parent="1">
          <mxGeometry x="730" y="250" width="30" height="30" as="geometry" />
        </mxCell>
        <mxCell id="JyXXB15nYnJvHHF5IV0J-84" value="" style="edgeStyle=orthogonalEdgeStyle;rounded=0;orthogonalLoop=1;jettySize=auto;html=1;fillColor=#dae8fc;strokeColor=#6c8ebf;" edge="1" parent="1" source="JyXXB15nYnJvHHF5IV0J-85" target="JyXXB15nYnJvHHF5IV0J-86">
          <mxGeometry relative="1" as="geometry" />
        </mxCell>
        <mxCell id="JyXXB15nYnJvHHF5IV0J-85" value="" style="rounded=1;whiteSpace=wrap;html=1;fillColor=#dae8fc;strokeColor=#6c8ebf;" vertex="1" parent="1">
          <mxGeometry x="779" y="250" width="30" height="30" as="geometry" />
        </mxCell>
        <mxCell id="JyXXB15nYnJvHHF5IV0J-86" value="" style="rounded=1;whiteSpace=wrap;html=1;fillColor=#dae8fc;strokeColor=#6c8ebf;" vertex="1" parent="1">
          <mxGeometry x="829" y="250" width="30" height="30" as="geometry" />
        </mxCell>
        <mxCell id="JyXXB15nYnJvHHF5IV0J-87" style="edgeStyle=orthogonalEdgeStyle;rounded=0;orthogonalLoop=1;jettySize=auto;html=1;entryX=0;entryY=0.5;entryDx=0;entryDy=0;" edge="1" parent="1" source="JyXXB15nYnJvHHF5IV0J-88" target="JyXXB15nYnJvHHF5IV0J-89">
          <mxGeometry relative="1" as="geometry" />
        </mxCell>
        <mxCell id="JyXXB15nYnJvHHF5IV0J-88" value="..." style="rounded=0;whiteSpace=wrap;html=1;fillColor=#f8cecc;strokeColor=#b85450;" vertex="1" parent="1">
          <mxGeometry x="660" y="300" width="40" height="30" as="geometry" />
        </mxCell>
        <mxCell id="JyXXB15nYnJvHHF5IV0J-89" value="" style="rounded=1;whiteSpace=wrap;html=1;fillColor=#dae8fc;strokeColor=#6c8ebf;" vertex="1" parent="1">
          <mxGeometry x="730" y="300" width="30" height="30" as="geometry" />
        </mxCell>
        <mxCell id="JyXXB15nYnJvHHF5IV0J-90" style="edgeStyle=orthogonalEdgeStyle;rounded=0;orthogonalLoop=1;jettySize=auto;html=1;entryX=0;entryY=0.5;entryDx=0;entryDy=0;" edge="1" parent="1" source="JyXXB15nYnJvHHF5IV0J-91" target="JyXXB15nYnJvHHF5IV0J-93">
          <mxGeometry relative="1" as="geometry" />
        </mxCell>
        <mxCell id="JyXXB15nYnJvHHF5IV0J-91" value="..." style="rounded=0;whiteSpace=wrap;html=1;fillColor=#f8cecc;strokeColor=#b85450;" vertex="1" parent="1">
          <mxGeometry x="660" y="350" width="40" height="30" as="geometry" />
        </mxCell>
        <mxCell id="JyXXB15nYnJvHHF5IV0J-92" value="" style="edgeStyle=orthogonalEdgeStyle;rounded=0;orthogonalLoop=1;jettySize=auto;html=1;fillColor=#dae8fc;strokeColor=#6c8ebf;" edge="1" parent="1" source="JyXXB15nYnJvHHF5IV0J-93" target="JyXXB15nYnJvHHF5IV0J-95">
          <mxGeometry relative="1" as="geometry" />
        </mxCell>
        <mxCell id="JyXXB15nYnJvHHF5IV0J-93" value="" style="rounded=1;whiteSpace=wrap;html=1;fillColor=#dae8fc;strokeColor=#6c8ebf;" vertex="1" parent="1">
          <mxGeometry x="730" y="350" width="30" height="30" as="geometry" />
        </mxCell>
        <mxCell id="JyXXB15nYnJvHHF5IV0J-94" value="" style="edgeStyle=orthogonalEdgeStyle;rounded=0;orthogonalLoop=1;jettySize=auto;html=1;fillColor=#dae8fc;strokeColor=#6c8ebf;" edge="1" parent="1" source="JyXXB15nYnJvHHF5IV0J-95" target="JyXXB15nYnJvHHF5IV0J-96">
          <mxGeometry relative="1" as="geometry" />
        </mxCell>
        <mxCell id="JyXXB15nYnJvHHF5IV0J-95" value="" style="rounded=1;whiteSpace=wrap;html=1;fillColor=#dae8fc;strokeColor=#6c8ebf;" vertex="1" parent="1">
          <mxGeometry x="779" y="350" width="30" height="30" as="geometry" />
        </mxCell>
        <mxCell id="JyXXB15nYnJvHHF5IV0J-96" value="" style="rounded=1;whiteSpace=wrap;html=1;fillColor=#dae8fc;strokeColor=#6c8ebf;" vertex="1" parent="1">
          <mxGeometry x="829" y="350" width="30" height="30" as="geometry" />
        </mxCell>
        <mxCell id="JyXXB15nYnJvHHF5IV0J-97" style="edgeStyle=orthogonalEdgeStyle;rounded=0;orthogonalLoop=1;jettySize=auto;html=1;entryX=0;entryY=0.5;entryDx=0;entryDy=0;" edge="1" parent="1" source="JyXXB15nYnJvHHF5IV0J-98" target="JyXXB15nYnJvHHF5IV0J-100">
          <mxGeometry relative="1" as="geometry" />
        </mxCell>
        <mxCell id="JyXXB15nYnJvHHF5IV0J-98" value="102" style="rounded=0;whiteSpace=wrap;html=1;fillColor=#f8cecc;strokeColor=#b85450;" vertex="1" parent="1">
          <mxGeometry x="660" y="400" width="40" height="30" as="geometry" />
        </mxCell>
        <mxCell id="JyXXB15nYnJvHHF5IV0J-99" value="" style="edgeStyle=orthogonalEdgeStyle;rounded=0;orthogonalLoop=1;jettySize=auto;html=1;fillColor=#dae8fc;strokeColor=#6c8ebf;" edge="1" parent="1" source="JyXXB15nYnJvHHF5IV0J-100" target="JyXXB15nYnJvHHF5IV0J-102">
          <mxGeometry relative="1" as="geometry" />
        </mxCell>
        <mxCell id="JyXXB15nYnJvHHF5IV0J-100" value="" style="rounded=1;whiteSpace=wrap;html=1;fillColor=#dae8fc;strokeColor=#6c8ebf;" vertex="1" parent="1">
          <mxGeometry x="730" y="400" width="30" height="30" as="geometry" />
        </mxCell>
        <mxCell id="JyXXB15nYnJvHHF5IV0J-101" value="" style="edgeStyle=orthogonalEdgeStyle;rounded=0;orthogonalLoop=1;jettySize=auto;html=1;fillColor=#dae8fc;strokeColor=#6c8ebf;" edge="1" parent="1" source="JyXXB15nYnJvHHF5IV0J-102" target="JyXXB15nYnJvHHF5IV0J-104">
          <mxGeometry relative="1" as="geometry" />
        </mxCell>
        <mxCell id="JyXXB15nYnJvHHF5IV0J-102" value="" style="rounded=1;whiteSpace=wrap;html=1;fillColor=#dae8fc;strokeColor=#6c8ebf;" vertex="1" parent="1">
          <mxGeometry x="779" y="400" width="30" height="30" as="geometry" />
        </mxCell>
        <mxCell id="JyXXB15nYnJvHHF5IV0J-103" value="" style="edgeStyle=orthogonalEdgeStyle;rounded=0;orthogonalLoop=1;jettySize=auto;html=1;fillColor=#dae8fc;strokeColor=#6c8ebf;" edge="1" parent="1" source="JyXXB15nYnJvHHF5IV0J-104" target="JyXXB15nYnJvHHF5IV0J-105">
          <mxGeometry relative="1" as="geometry" />
        </mxCell>
        <mxCell id="JyXXB15nYnJvHHF5IV0J-104" value="" style="rounded=1;whiteSpace=wrap;html=1;fillColor=#dae8fc;strokeColor=#6c8ebf;" vertex="1" parent="1">
          <mxGeometry x="829" y="400" width="30" height="30" as="geometry" />
        </mxCell>
        <mxCell id="JyXXB15nYnJvHHF5IV0J-105" value="" style="rounded=1;whiteSpace=wrap;html=1;fillColor=#dae8fc;strokeColor=#6c8ebf;" vertex="1" parent="1">
          <mxGeometry x="879" y="400" width="30" height="30" as="geometry" />
        </mxCell>
        <mxCell id="JyXXB15nYnJvHHF5IV0J-106" style="edgeStyle=orthogonalEdgeStyle;rounded=0;orthogonalLoop=1;jettySize=auto;html=1;entryX=0;entryY=0.5;entryDx=0;entryDy=0;" edge="1" parent="1" source="JyXXB15nYnJvHHF5IV0J-107" target="JyXXB15nYnJvHHF5IV0J-109">
          <mxGeometry relative="1" as="geometry" />
        </mxCell>
        <mxCell id="JyXXB15nYnJvHHF5IV0J-107" value="101" style="rounded=0;whiteSpace=wrap;html=1;fillColor=#f8cecc;strokeColor=#b85450;" vertex="1" parent="1">
          <mxGeometry x="660" y="450" width="40" height="30" as="geometry" />
        </mxCell>
        <mxCell id="JyXXB15nYnJvHHF5IV0J-108" value="" style="edgeStyle=orthogonalEdgeStyle;rounded=0;orthogonalLoop=1;jettySize=auto;html=1;fillColor=#dae8fc;strokeColor=#6c8ebf;" edge="1" parent="1" source="JyXXB15nYnJvHHF5IV0J-109" target="JyXXB15nYnJvHHF5IV0J-111">
          <mxGeometry relative="1" as="geometry" />
        </mxCell>
        <mxCell id="JyXXB15nYnJvHHF5IV0J-109" value="" style="rounded=1;whiteSpace=wrap;html=1;fillColor=#dae8fc;strokeColor=#6c8ebf;" vertex="1" parent="1">
          <mxGeometry x="730" y="450" width="30" height="30" as="geometry" />
        </mxCell>
        <mxCell id="JyXXB15nYnJvHHF5IV0J-110" value="" style="edgeStyle=orthogonalEdgeStyle;rounded=0;orthogonalLoop=1;jettySize=auto;html=1;fillColor=#dae8fc;strokeColor=#6c8ebf;" edge="1" parent="1" source="JyXXB15nYnJvHHF5IV0J-111" target="JyXXB15nYnJvHHF5IV0J-113">
          <mxGeometry relative="1" as="geometry" />
        </mxCell>
        <mxCell id="JyXXB15nYnJvHHF5IV0J-111" value="" style="rounded=1;whiteSpace=wrap;html=1;fillColor=#dae8fc;strokeColor=#6c8ebf;" vertex="1" parent="1">
          <mxGeometry x="779" y="450" width="30" height="30" as="geometry" />
        </mxCell>
        <mxCell id="JyXXB15nYnJvHHF5IV0J-112" value="" style="edgeStyle=orthogonalEdgeStyle;rounded=0;orthogonalLoop=1;jettySize=auto;html=1;fillColor=#dae8fc;strokeColor=#6c8ebf;" edge="1" parent="1" source="JyXXB15nYnJvHHF5IV0J-113" target="JyXXB15nYnJvHHF5IV0J-114">
          <mxGeometry relative="1" as="geometry" />
        </mxCell>
        <mxCell id="JyXXB15nYnJvHHF5IV0J-113" value="" style="rounded=1;whiteSpace=wrap;html=1;fillColor=#dae8fc;strokeColor=#6c8ebf;" vertex="1" parent="1">
          <mxGeometry x="829" y="450" width="30" height="30" as="geometry" />
        </mxCell>
        <mxCell id="JyXXB15nYnJvHHF5IV0J-114" value="" style="rounded=1;whiteSpace=wrap;html=1;fillColor=#dae8fc;strokeColor=#6c8ebf;" vertex="1" parent="1">
          <mxGeometry x="879" y="450" width="30" height="30" as="geometry" />
        </mxCell>
        <mxCell id="JyXXB15nYnJvHHF5IV0J-115" style="edgeStyle=orthogonalEdgeStyle;rounded=0;orthogonalLoop=1;jettySize=auto;html=1;entryX=0;entryY=0.5;entryDx=0;entryDy=0;" edge="1" parent="1" source="JyXXB15nYnJvHHF5IV0J-116" target="JyXXB15nYnJvHHF5IV0J-118">
          <mxGeometry relative="1" as="geometry" />
        </mxCell>
        <mxCell id="JyXXB15nYnJvHHF5IV0J-116" value="100" style="rounded=0;whiteSpace=wrap;html=1;fillColor=#f8cecc;strokeColor=#b85450;" vertex="1" parent="1">
          <mxGeometry x="660" y="500" width="40" height="30" as="geometry" />
        </mxCell>
        <mxCell id="JyXXB15nYnJvHHF5IV0J-117" value="" style="edgeStyle=orthogonalEdgeStyle;rounded=0;orthogonalLoop=1;jettySize=auto;html=1;fillColor=#dae8fc;strokeColor=#6c8ebf;" edge="1" parent="1" source="JyXXB15nYnJvHHF5IV0J-118" target="JyXXB15nYnJvHHF5IV0J-120">
          <mxGeometry relative="1" as="geometry" />
        </mxCell>
        <mxCell id="JyXXB15nYnJvHHF5IV0J-118" value="" style="rounded=1;whiteSpace=wrap;html=1;fillColor=#dae8fc;strokeColor=#6c8ebf;" vertex="1" parent="1">
          <mxGeometry x="730" y="500" width="30" height="30" as="geometry" />
        </mxCell>
        <mxCell id="JyXXB15nYnJvHHF5IV0J-119" value="" style="edgeStyle=orthogonalEdgeStyle;rounded=0;orthogonalLoop=1;jettySize=auto;html=1;fillColor=#dae8fc;strokeColor=#6c8ebf;" edge="1" parent="1" source="JyXXB15nYnJvHHF5IV0J-120" target="JyXXB15nYnJvHHF5IV0J-122">
          <mxGeometry relative="1" as="geometry" />
        </mxCell>
        <mxCell id="JyXXB15nYnJvHHF5IV0J-120" value="" style="rounded=1;whiteSpace=wrap;html=1;fillColor=#dae8fc;strokeColor=#6c8ebf;" vertex="1" parent="1">
          <mxGeometry x="779" y="500" width="30" height="30" as="geometry" />
        </mxCell>
        <mxCell id="JyXXB15nYnJvHHF5IV0J-121" value="" style="edgeStyle=orthogonalEdgeStyle;rounded=0;orthogonalLoop=1;jettySize=auto;html=1;fillColor=#dae8fc;strokeColor=#6c8ebf;" edge="1" parent="1" source="JyXXB15nYnJvHHF5IV0J-122" target="JyXXB15nYnJvHHF5IV0J-123">
          <mxGeometry relative="1" as="geometry" />
        </mxCell>
        <mxCell id="JyXXB15nYnJvHHF5IV0J-122" value="" style="rounded=1;whiteSpace=wrap;html=1;fillColor=#dae8fc;strokeColor=#6c8ebf;" vertex="1" parent="1">
          <mxGeometry x="829" y="500" width="30" height="30" as="geometry" />
        </mxCell>
        <mxCell id="JyXXB15nYnJvHHF5IV0J-123" value="" style="rounded=1;whiteSpace=wrap;html=1;fillColor=#dae8fc;strokeColor=#6c8ebf;" vertex="1" parent="1">
          <mxGeometry x="879" y="500" width="30" height="30" as="geometry" />
        </mxCell>
        <mxCell id="JyXXB15nYnJvHHF5IV0J-124" value="Expired Run queues" style="text;html=1;align=center;verticalAlign=middle;resizable=0;points=[];autosize=1;" vertex="1" parent="1">
          <mxGeometry x="720" y="160" width="120" height="20" as="geometry" />
        </mxCell>
        <mxCell id="JyXXB15nYnJvHHF5IV0J-125" style="edgeStyle=orthogonalEdgeStyle;rounded=0;orthogonalLoop=1;jettySize=auto;html=1;entryX=0.5;entryY=-0.1;entryDx=0;entryDy=0;entryPerimeter=0;strokeWidth=2;" edge="1" parent="1" source="JyXXB15nYnJvHHF5IV0J-126" target="JyXXB15nYnJvHHF5IV0J-127">
          <mxGeometry relative="1" as="geometry" />
        </mxCell>
        <mxCell id="JyXXB15nYnJvHHF5IV0J-126" value="Low" style="text;html=1;align=center;verticalAlign=middle;resizable=0;points=[];autosize=1;" vertex="1" parent="1">
          <mxGeometry x="610" y="205" width="40" height="20" as="geometry" />
        </mxCell>
        <mxCell id="JyXXB15nYnJvHHF5IV0J-127" value="high" style="text;html=1;align=center;verticalAlign=middle;resizable=0;points=[];autosize=1;" vertex="1" parent="1">
          <mxGeometry x="610" y="500" width="40" height="20" as="geometry" />
        </mxCell>
        <mxCell id="JyXXB15nYnJvHHF5IV0J-128" value="&lt;font style=&quot;font-size: 17px&quot;&gt;priority&lt;/font&gt;" style="text;html=1;align=center;verticalAlign=middle;resizable=0;points=[];autosize=1;rotation=270;" vertex="1" parent="1">
          <mxGeometry x="580" y="355" width="70" height="20" as="geometry" />
        </mxCell>
        <mxCell id="JyXXB15nYnJvHHF5IV0J-130" style="edgeStyle=orthogonalEdgeStyle;rounded=0;orthogonalLoop=1;jettySize=auto;html=1;strokeWidth=2;curved=1;fillColor=#f8cecc;strokeColor=#b85450;" edge="1" parent="1" source="JyXXB15nYnJvHHF5IV0J-129">
          <mxGeometry relative="1" as="geometry">
            <mxPoint x="160" y="490" as="targetPoint" />
            <Array as="points">
              <mxPoint x="315" y="570" />
              <mxPoint x="160" y="570" />
            </Array>
          </mxGeometry>
        </mxCell>
        <mxCell id="JyXXB15nYnJvHHF5IV0J-129" value="" style="ellipse;whiteSpace=wrap;html=1;fillColor=none;strokeWidth=2;" vertex="1" parent="1">
          <mxGeometry x="289.5" y="493.75" width="51" height="42.5" as="geometry" />
        </mxCell>
        <mxCell id="JyXXB15nYnJvHHF5IV0J-132" style="edgeStyle=orthogonalEdgeStyle;curved=1;rounded=0;orthogonalLoop=1;jettySize=auto;html=1;strokeWidth=2;fillColor=#f8cecc;strokeColor=#b85450;" edge="1" parent="1" source="JyXXB15nYnJvHHF5IV0J-131">
          <mxGeometry relative="1" as="geometry">
            <mxPoint x="590" y="490" as="targetPoint" />
            <Array as="points">
              <mxPoint x="155" y="690" />
              <mxPoint x="490" y="690" />
              <mxPoint x="490" y="490" />
            </Array>
          </mxGeometry>
        </mxCell>
        <mxCell id="JyXXB15nYnJvHHF5IV0J-131" value="" style="rounded=1;whiteSpace=wrap;html=1;fillColor=#fff2cc;strokeColor=#d6b656;" vertex="1" parent="1">
          <mxGeometry x="140" y="460" width="30" height="30" as="geometry" />
        </mxCell>
        <mxCell id="JyXXB15nYnJvHHF5IV0J-133" value="&lt;font style=&quot;font-size: 14px&quot;&gt;execute&lt;/font&gt;" style="text;html=1;align=center;verticalAlign=middle;resizable=0;points=[];autosize=1;" vertex="1" parent="1">
          <mxGeometry x="110" y="430" width="60" height="20" as="geometry" />
        </mxCell>
        <mxCell id="JyXXB15nYnJvHHF5IV0J-139" value="" style="shape=curlyBracket;whiteSpace=wrap;html=1;rounded=1;strokeWidth=2;fillColor=#d80073;strokeColor=#A50040;fontColor=#ffffff;" vertex="1" parent="1">
          <mxGeometry x="590" y="205" width="20" height="325" as="geometry" />
        </mxCell>
      </root>
    </mxGraphModel>
  </diagram>
</mxfile>
